PathFileType	4	(X/Y/Z)	E:\Marcel_BSc\Ayumi_22_01_2025\22-01-2025\sumo_dl_0.trc
DataRate	CameraRate	NumFrames	NumMarkers	Units	OrigDataRate	OrigDataStartFrame	OrigNumFrames
200.0	200.0	6	48	mm	200.0	1614	2582	
Frame#	Time	RUFIN			FHD			LBHD			RBHD			RBAR			LBAR			RSACR			LSACR			LASI			USACR			LTHI2			C7			CLAV			T10			RSHO			LSHO			LTHI1			LTHI3			LTIB1			LTIB2			LTIB3			LMMAL			LLMAL			LHEE			LMT1			LMT5			LMT3			RTHI1			RTHI2			RTHI3			RTIB1			RTIB3			RTIB2			RLMAL			RMMAL			RHEE			RMT5			RMT1			RMT3			LDUPA			LMUPA			LUUPA			LRAD			RRAD			RUL			RMUPA			RDUPA			RUUPA			
		X1	Y1	Z1	X2	Y2	Z2	X3	Y3	Z3	X4	Y4	Z4	X5	Y5	Z5	X6	Y6	Z6	X7	Y7	Z7	X8	Y8	Z8	X9	Y9	Z9	X10	Y10	Z10	X11	Y11	Z11	X12	Y12	Z12	X13	Y13	Z13	X14	Y14	Z14	X15	Y15	Z15	X16	Y16	Z16	X17	Y17	Z17	X18	Y18	Z18	X19	Y19	Z19	X20	Y20	Z20	X21	Y21	Z21	X22	Y22	Z22	X23	Y23	Z23	X24	Y24	Z24	X25	Y25	Z25	X26	Y26	Z26	X27	Y27	Z27	X28	Y28	Z28	X29	Y29	Z29	X30	Y30	Z30	X31	Y31	Z31	X32	Y32	Z32	X33	Y33	Z33	X34	Y34	Z34	X35	Y35	Z35	X36	Y36	Z36	X37	Y37	Z37	X38	Y38	Z38	X39	Y39	Z39	X40	Y40	Z40	X41	Y41	Z41	X42	Y42	Z42	X43	Y43	Z43	X44	Y44	Z44	X45	Y45	Z45	X46	Y46	Z46	X47	Y47	Z47	X48	Y48	Z48	
1614	8.06	196.27043	554.15491	-1182.9471	44.415237	1413.7552	-972.02979	62.051212	1402.3131	-910.81476	89.175835	1388.9052	-1041.1472	220.09026	567.61633	-2076.9534	266.36823	552.9563	142.22624	485.97827	849.26141	-1021.5009	487.99216	853.58197	-948.58923				480.70172	862.04419	-986.09772	349.12796	535.20569	-649.80603	274.3717	1254.4825	-966.02667	173.94948	1130.3116	-964.17017	416.13281	1021.0201	-984.81726	164.46048	1152.4196	-1120.6351	215.30283	1159.0619	-798.08667	397.14755	568.33691	-682.86261	385.44525	505.49829	-668.6842	327.50922	243.04433	-529.39294	364.80884	225.61765	-558.88159	336.12036	177.45822	-524.03387	273.81262	66.344765	-549.90082	331.2605	69.813515	-505.54807	338.47281	31.03581	-553.58893	186.28026	44.616112	-428.13837	252.06715	25.740492	-382.48465	206.49635	40.014359	-399.40112	379.11737	565.56067	-1271.2046	329.11877	537.25275	-1304.4747	364.07916	504.39371	-1286.7203	310.94351	276.45496	-1405.9531	322.94302	211.93152	-1407.4757	350.06549	263.82727	-1377.024	322.49142	71.17569	-1426.0581	251.15627	68.226662	-1394.249	326.76367	30.28162	-1373.7573	254.13403	27.035059	-1549.8429	192.53658	37.392918	-1520.2469	215.60069	35.038746	-1541.5652	319.82626	959.13422	-747.31897	270.25192	962.32349	-750.50415	273.55328	1024.031	-751.83893	277.38672	636.47723	-714.18024	191.9628	631.5899	-1182.2111	190.57437	636.95953	-1245.1831	214.60876	1040.3246	-1195.7205	215.7025	979.90961	-1210.1726	262.76147	1043.3933	-1205.838
1615	8.065	196.40767	553.19952	-1183.1102	43.511482	1412.6633	-972.07141	61.178993	1401.2333	-910.77124	88.279419	1387.8535	-1041.099	220.45981	567.0351	-2077.6873	266.42987	551.9834	142.0645	486.47824	848.90466	-1021.4775	488.5061	853.26624	-948.52466				481.1387	861.81519	-986.01978	349.47937	535.37079	-649.51904	273.48361	1253.7529	-965.9162	173.49022	1129.2023	-964.12811	416.0517	1020.6124	-984.69751	164.02853	1151.322	-1120.5399	214.67815	1157.991	-798.05737	397.54919	568.33142	-682.62494	385.73312	505.60184	-668.30194	327.65283	243.01274	-529.1441	364.92642	225.59256	-558.60968	336.19003	177.44724	-523.85815	273.85135	66.416153	-549.82385	331.34271	69.812897	-505.45514	338.49719	31.022165	-553.58356	186.29012	44.642109	-428.10986	252.35933	25.973257	-382.53198	206.6907	39.881428	-399.75134	379.9776	565.36279	-1271.3711	329.69989	537.3161	-1304.5692	364.02335	503.8364	-1285.9521	311.42374	276.4581	-1406.3082	322.978	212.39062	-1407.7157	350.40494	263.78522	-1377.2252	322.673	71.184303	-1426.1766	251.28574	68.4105	-1394.3763	326.79459	30.281754	-1373.7992	254.17747	27.023991	-1549.8788	192.5517	37.49485	-1520.2888	215.64925	35.024952	-1541.5837	319.30951	958.2915	-747.12054	269.81042	961.42725	-750.49432	272.97437	1023.1819	-751.86218	277.44485	635.54504	-714.34277	192.03214	630.75531	-1182.3237	190.77132	636.28693	-1245.2997	214.29137	1039.3676	-1195.603	215.45697	978.97321	-1210.084	262.48407	1042.4586	-1205.7982
1616	8.07	196.57399	552.32959	-1183.1473	42.453205	1411.78	-971.84271	60.098736	1400.5885	-910.58051	87.420219	1386.7067	-1041.2102	219.22459	566.31342	-2077.4482	266.48679	550.98926	141.92508	486.96802	848.68787	-1021.3842	488.952	853.02795	-948.42523				481.69788	861.43622	-985.98694	349.88327	535.44037	-649.26379	272.73636	1252.8646	-965.68671	173.05406	1128.0883	-964.1059	415.8699	1020.3589	-984.51385	163.58911	1150.1534	-1120.5166	213.97417	1156.99	-798.13867	398.01694	568.22516	-682.43805	386.08875	505.60678	-667.99286	327.879	242.99487	-528.85632	365.0358	225.6711	-558.41473	336.2554	177.42365	-523.72955	273.93384	66.478065	-549.73914	331.43924	69.811356	-505.37289	338.5101	31.029882	-553.56805	186.32788	44.673634	-428.07889	252.41235	26.054182	-382.48376	206.73569	39.879055	-399.74222	380.96747	565.22455	-1271.5745	330.58484	537.47089	-1304.9347	364.65237	503.77161	-1286.187	312.04758	276.41364	-1406.6796	323.4263	212.35425	-1407.9778	350.84683	263.73645	-1377.5144	322.84018	71.188179	-1426.2872	251.44946	68.572495	-1394.4911	326.84381	30.287754	-1373.8458	254.22809	26.983702	-1549.918	192.60953	37.555286	-1520.3254	215.71429	35.036953	-1541.5928	318.84332	957.53082	-746.8739	268.9209	960.57928	-751.25006	272.2991	1022.2761	-751.87799	277.42874	634.73602	-714.45728	191.94748	629.87659	-1182.4207	190.6588	635.1236	-1245.449	213.95851	1038.4675	-1195.4713	215.25772	978.06238	-1210.0167	262.21469	1041.5179	-1205.7386
1617	8.075	196.73312	551.36572	-1183.308	41.765247	1410.4277	-972.04718	59.352501	1399.1116	-910.77283	86.573807	1385.6506	-1041.063	220.01945	566.0329	-2078.4553	266.57437	550.09546	141.79848	487.41821	848.62689	-1021.2272	488.94424	853.01495	-948.23254				481.99832	861.44452	-985.78772	350.40341	535.51904	-649.00867	271.90085	1252.063	-965.54724	172.5466	1127.0549	-964.04431	415.77219	1019.9885	-984.35645	163.07869	1149.1021	-1120.3765	213.38315	1155.946	-798.06818	398.56363	568.10315	-682.29602	386.48804	505.42157	-667.74005	327.9903	243.07248	-528.63025	365.23593	225.68352	-558.19019	336.31442	177.43161	-523.59497	273.96722	66.565605	-549.63281	331.5386	69.876297	-505.29236	338.55673	31.026073	-553.52881	186.38525	44.673428	-428.05826	252.4575	26.048199	-382.46503	206.79187	39.837543	-399.78348	381.9762	565.05096	-1271.771	331.62192	537.41486	-1305.3618	365.58533	503.67355	-1286.6056	312.70953	276.47818	-1407.0764	323.84216	212.37889	-1408.2068	351.34192	263.73022	-1377.7388	323.04581	71.101982	-1426.4303	251.56885	68.720406	-1394.6309	326.8772	30.296688	-1373.8694	254.2809	26.971153	-1549.9541	192.69521	37.566505	-1520.3667	215.78072	35.048073	-1541.6145	318.34149	956.78235	-746.70953	268.80078	959.72272	-750.63019	271.79089	1021.5279	-751.86566	277.44977	633.85162	-714.59808	191.95763	629.01172	-1182.6528	190.90828	634.40021	-1245.5858	213.69675	1037.5347	-1195.3676	215.06967	977.20947	-1209.9512	261.94156	1040.6559	-1205.6722
1618	8.08	196.83286	550.44061	-1183.4756	40.581505	1409.7512	-971.82861	58.284557	1398.4484	-910.57776	85.712151	1384.6079	-1041.1311	220.56738	564.66388	-2078.2322	266.59872	549.10419	141.64915	487.85358	848.59863	-1021.046	489.49814	852.72363	-948.16602				482.32993	861.38806	-985.59955	350.89191	535.49921	-648.83942	271.18158	1250.9846	-965.61359	172.07304	1125.9484	-964.01691	415.63104	1019.6705	-984.18982	162.58769	1148.0864	-1120.2252	212.61322	1155.0276	-798.02472	399.11514	567.89874	-682.1944	386.89923	505.13901	-667.50134	328.04858	243.13959	-528.42157	365.37137	225.7011	-558.00049	336.4147	177.28044	-523.54114	274.01608	66.614426	-549.53595	331.65454	69.869904	-505.20605	338.6044	31.029535	-553.51013	186.42847	44.686722	-428.03427	252.4949	26.041962	-382.43414	206.82198	39.855339	-399.75803	382.90509	564.87915	-1271.9845	332.40918	538.00665	-1305.6741	366.51813	503.8219	-1287.6816	315.00677	276.21252	-1407.9114	324.64807	211.86343	-1408.5109	351.89825	263.7583	-1378.0243	323.20209	71.060677	-1426.4916	251.661	68.839867	-1394.7722	326.9191	30.325838	-1373.8894	254.33078	26.941307	-1550.0055	192.76237	37.589378	-1520.3876	215.83858	35.045998	-1541.6359	317.92459	956.09277	-746.49518	268.10254	958.89343	-751.17957	271.31107	1020.6923	-751.76874	277.51086	632.97577	-714.68427	191.92693	628.08551	-1182.7865	190.99821	633.46368	-1245.7062	213.47771	1036.5819	-1195.311	214.95232	976.28247	-1209.9369	261.60898	1039.9871	-1205.5045
1619	8.085	196.96898	549.54596	-1183.5215	39.863873	1408.4301	-971.99554	57.409241	1397.3618	-910.56458	84.966385	1383.4133	-1041.0984	220.2099	564.22577	-2078.5012	266.72781	548.25214	141.54176	488.26709	848.44666	-1020.9696	489.83368	852.55701	-948.02655				482.88483	860.92389	-985.61499	351.42923	535.47485	-648.63226	270.33316	1250.376	-965.61218	171.58795	1124.9023	-963.96448	415.54196	1019.2473	-984.03186	162.16191	1146.8981	-1120.2177	211.99324	1153.8209	-798.10962	399.64325	567.67908	-682.13678	387.29486	505.12427	-667.39417	328.26831	243.1465	-528.18903	365.58835	225.73935	-557.81952	336.49722	177.38913	-523.36462	274.10544	66.691055	-549.43933	331.758	69.849083	-505.12881	338.64633	31.020897	-553.48132	186.48547	44.698826	-428.00485	252.5121	26.025785	-382.42178	206.85841	39.862404	-399.76962	383.93228	564.72406	-1272.2584	333.23962	537.9848	-1306.1392	367.12363	503.53955	-1287.2217	315.21432	276.673	-1408.2903	324.7399	212.38016	-1408.7874	352.42496	263.79144	-1378.4406	323.29666	71.308098	-1426.3396	251.76883	68.913223	-1394.89	326.91232	30.366989	-1373.8702	254.38031	26.92005	-1550.0487	192.82924	37.584972	-1520.417	215.89244	35.044704	-1541.6487	317.57178	955.36035	-746.32837	268.02039	958.14069	-750.52283	270.75159	1019.9005	-751.72949	277.50742	632.08502	-714.8136	191.88371	627.20477	-1182.9648	190.99963	632.60681	-1245.7993	213.24332	1035.6609	-1195.2296	214.94635	975.28473	-1209.9131	261.43994	1039.1069	-1205.4182
